<svg width="200" height="235" viewBox="0 0 200 235" fill="none" xmlns="http://www.w3.org/2000/svg">
<path d="M90.139 25.1848L295.061 152.798C297.631 154.395 298.4 157.763 296.76 160.29C295.119 162.801 291.678 163.556 289.109 161.959L84.2011 34.3311C81.6314 32.7341 80.8619 29.366 82.5025 26.8398C84.143 24.3282 87.5838 23.5733 90.1535 25.1702L90.139 25.1848Z" fill="white"/>
<path d="M126.579 101.884L227.509 164.747C230.078 166.344 230.848 169.712 229.207 172.239C227.567 174.75 224.126 175.505 221.556 173.908L120.627 111.045C118.057 109.448 117.288 106.08 118.928 103.554C120.569 101.042 124.01 100.287 126.579 101.884Z" fill="white"/>
<path d="M8.50368 0.838217L146.686 86.9011C149.256 88.4981 150.025 91.8663 148.385 94.3924C146.744 96.904 143.304 97.659 140.734 96.062L2.5658 9.98458C-0.00389196 8.38759 -0.773348 5.01941 0.852672 2.50779C2.49321 -0.00382897 5.93398 -0.758767 8.50368 0.838217Z" fill="white"/>
<path d="M172.558 103.001L206.995 124.444C209.564 126.041 210.334 129.41 208.693 131.936C207.053 134.447 203.612 135.202 201.042 133.605L166.605 112.162C164.036 110.565 163.266 107.197 164.907 104.671C166.547 102.159 169.988 101.404 172.558 103.016V103.001Z" fill="white"/>
</svg>
