<svg width="1280" height="811" viewBox="0 0 1280 811" fill="none" xmlns="http://www.w3.org/2000/svg">
<path d="M1170.14 601.185L1375.06 728.798C1377.63 730.395 1378.4 733.763 1376.76 736.29C1375.12 738.801 1371.68 739.556 1369.11 737.959L1164.2 610.331C1161.63 608.734 1160.86 605.366 1162.5 602.84C1164.14 600.328 1167.58 599.573 1170.15 601.17L1170.14 601.185Z" fill="white"/>
<path d="M1206.58 677.884L1307.51 740.747C1310.08 742.344 1310.85 745.712 1309.21 748.239C1307.57 750.75 1304.13 751.505 1301.56 749.908L1200.63 687.045C1198.06 685.448 1197.29 682.08 1198.93 679.554C1200.57 677.042 1204.01 676.287 1206.58 677.884Z" fill="white"/>
<path d="M1088.5 576.838L1226.69 662.901C1229.26 664.498 1230.03 667.866 1228.38 670.392C1226.74 672.904 1223.3 673.659 1220.73 672.062L1082.57 585.985C1080 584.388 1079.23 581.019 1080.85 578.508C1082.49 575.996 1085.93 575.241 1088.5 576.838Z" fill="white"/>
<path d="M1252.56 679.001L1286.99 700.444C1289.56 702.041 1290.33 705.41 1288.69 707.936C1287.05 710.447 1283.61 711.202 1281.04 709.605L1246.61 688.162C1244.04 686.565 1243.27 683.197 1244.91 680.671C1246.55 678.159 1249.99 677.404 1252.56 679.016V679.001Z" fill="white"/>
<path d="M401.45 -16.8776C404.93 -13.5365 403.121 -8.5225 401.374 -3.67555C399.825 0.615088 398.358 4.67835 400.704 6.92144C403.041 9.16977 407.099 7.59708 411.388 5.94106C416.236 4.06917 421.246 2.13365 424.717 5.47996C428.197 8.82102 426.389 13.8351 424.636 18.6735C423.087 22.9641 421.62 27.0274 423.957 29.2757C426.294 31.5241 430.352 29.9514 434.641 28.2954C439.49 26.4235 444.499 24.488 447.971 27.8343C451.451 31.1753 449.637 36.1808 447.89 41.0278C446.34 45.3184 444.869 49.3732 447.205 51.6215C449.542 53.8699 453.601 52.2972 457.895 50.6497C462.743 48.7778 467.753 46.8422 471.224 50.1886C474.704 53.5296 472.89 58.5352 471.143 63.3821C469.594 67.6727 468.127 71.736 470.459 73.9758C472.796 76.2242 476.854 74.6515 481.143 72.9954C485.992 71.1235 491.001 69.188 494.472 72.5343C497.952 75.8754 496.144 80.8895 494.391 85.7279C492.842 90.0185 491.376 94.0818 493.707 96.3216L491.941 98.1262C488.461 94.7851 490.27 89.7711 492.022 84.9326C493.572 80.642 495.038 76.5787 492.706 74.3389C490.37 72.0906 486.311 73.6633 482.023 75.3193C477.174 77.1912 472.165 79.1267 468.693 75.7804C465.213 72.4393 467.027 67.4338 468.774 62.5869C470.323 58.2962 471.79 54.2329 469.458 51.9931C467.121 49.7448 463.063 51.3175 458.769 52.965C453.92 54.8369 448.92 56.7672 445.44 53.4261C441.96 50.085 443.773 45.0795 445.52 40.2326C447.07 35.9419 448.542 31.8872 446.205 29.6388C443.868 27.3905 439.81 28.9632 435.516 30.6107C430.667 32.4826 425.658 34.4181 422.186 31.0718C418.706 27.7307 420.515 22.7167 422.267 17.8783C423.816 13.5876 425.283 9.52435 422.938 7.28126C420.601 5.03294 416.543 6.60562 412.248 8.25313C407.4 10.125 402.39 12.0605 398.919 8.71423C395.439 5.37317 397.248 0.359126 398.995 -4.48783C400.544 -8.77847 402.01 -12.8417 399.665 -15.0848C397.328 -17.3331 393.265 -15.769 388.976 -14.1129C384.127 -12.2411 379.118 -10.3055 375.641 -13.6604L377.407 -15.4649C379.744 -13.2166 383.807 -14.7808 388.096 -16.4368C392.945 -18.3087 397.954 -20.2442 401.431 -16.8894L401.45 -16.8776Z" fill="white"/>
<path d="M442.353 -56.2355C445.833 -52.8945 444.025 -47.8804 442.278 -43.0335C440.728 -38.7428 439.262 -34.6796 441.607 -32.4365C443.944 -30.1881 448.002 -31.7608 452.291 -33.4169C457.14 -35.2887 462.149 -37.2243 465.62 -33.878C469.1 -30.5369 467.292 -25.5228 465.54 -20.6844C463.99 -16.3938 462.524 -12.3305 464.861 -10.0822C467.197 -7.83385 471.256 -9.40653 475.544 -11.0626C480.393 -12.9344 485.402 -14.87 488.874 -11.5237C492.354 -8.1826 490.54 -3.17706 488.793 1.66989C487.244 5.96053 485.772 10.0153 488.109 12.2636C490.446 14.5119 494.504 12.9392 498.798 11.2917C503.647 9.41985 508.656 7.48433 512.127 10.8306C515.607 14.1717 513.794 19.1772 512.047 24.0242C510.497 28.3148 509.031 32.3781 511.362 34.6179C513.699 36.8662 517.757 35.2936 522.046 33.6375C526.895 31.7656 531.904 29.8301 535.376 33.1764C538.856 36.5175 537.047 41.5315 535.295 46.37C533.745 50.6606 532.279 54.7239 534.61 56.9637L532.845 58.7683C529.365 55.4272 531.173 50.4132 532.925 45.5747C534.475 41.2841 535.941 37.2208 533.61 34.981C531.273 32.7327 527.215 34.3054 522.926 35.9614C518.077 37.8333 513.068 39.7688 509.596 36.4225C506.116 33.0814 507.93 28.0759 509.677 23.2289C511.227 18.9383 512.693 14.875 510.362 12.6352C508.025 10.3869 503.967 11.9596 499.672 13.6071C494.824 15.479 489.814 17.4145 486.343 14.0682C482.863 10.7271 484.677 5.72159 486.424 0.874635C487.973 -3.416 489.445 -7.47075 487.108 -9.71908C484.771 -11.9674 480.713 -10.3947 476.419 -8.74721C471.57 -6.87532 466.561 -4.9398 463.09 -8.28611C459.61 -11.6272 461.418 -16.6412 463.17 -21.4797C464.72 -25.7703 466.186 -29.8336 463.841 -32.0766C461.504 -34.325 457.446 -32.7523 453.152 -31.1048C448.303 -29.2329 443.294 -27.2974 439.822 -30.6437C436.342 -33.9847 438.151 -38.9988 439.898 -43.8457C441.447 -48.1364 442.914 -52.1996 440.568 -54.4427C438.232 -56.6911 434.168 -55.1269 429.879 -53.4709C425.031 -51.599 420.021 -49.6635 416.545 -53.0183L418.31 -54.8228C420.647 -52.5745 424.711 -54.1387 428.999 -55.7947C433.848 -57.6666 438.858 -59.6021 442.334 -56.2473L442.353 -56.2355Z" fill="white"/>
<path d="M422.921 -37.5426C426.401 -34.2016 424.592 -29.1875 422.845 -24.3406C421.296 -20.05 419.829 -15.9867 422.175 -13.7436C424.511 -11.4953 428.57 -13.068 432.858 -14.724C437.707 -16.5959 442.716 -18.5314 446.188 -15.1851C449.668 -11.844 447.859 -6.82998 446.107 -1.99154C444.558 2.2991 443.091 6.36237 445.428 8.61069C447.765 10.859 451.823 9.28635 456.112 7.63032C460.961 5.75843 465.97 3.82291 469.441 7.16922C472.921 10.5103 471.108 15.5158 469.361 20.3628C467.811 24.6534 466.339 28.7082 468.676 30.9565C471.013 33.2048 475.071 31.6321 479.365 29.9846C484.214 28.1127 489.223 26.1772 492.695 29.5235C496.175 32.8646 494.361 37.8701 492.614 42.7171C491.064 47.0077 489.598 51.071 491.93 53.3108C494.266 55.5591 498.325 53.9864 502.613 52.3304C507.462 50.4585 512.471 48.523 515.943 51.8693C519.423 55.2104 517.614 60.2244 515.862 65.0629C514.313 69.3535 512.846 73.4168 515.178 75.6566L513.412 77.4612C509.932 74.1201 511.741 69.106 513.493 64.2676C515.042 59.977 516.509 55.9137 514.177 53.6739C511.84 51.4256 507.782 52.9982 503.493 54.6543C498.645 56.5261 493.644 58.4564 490.164 55.1154C486.684 51.7743 488.498 46.7688 490.245 41.9218C491.794 37.6312 493.26 33.5679 490.929 31.3281C488.592 29.0798 484.534 30.6525 480.24 32.3C475.391 34.1718 470.39 36.1021 466.91 32.7611C463.43 29.42 465.244 24.4145 466.991 19.5675C468.541 15.2769 470.012 11.2221 467.675 8.9738C465.339 6.72547 461.28 8.29816 456.986 9.94567C452.138 11.8176 447.137 13.7478 443.657 10.4068C440.177 7.06569 441.985 2.05165 443.738 -2.78679C445.287 -7.07743 446.754 -11.1407 444.408 -13.3838C442.071 -15.6321 438.013 -14.0594 433.719 -12.4119C428.87 -10.54 423.87 -8.60974 420.39 -11.9508C416.91 -15.2919 418.718 -20.3059 420.465 -25.1529C422.015 -29.4435 423.481 -33.5068 421.136 -35.7499C418.799 -37.9982 414.736 -36.434 410.447 -34.778C405.598 -32.9061 400.589 -30.9706 397.112 -34.3254L398.878 -36.13C401.215 -33.8816 405.278 -35.4458 409.567 -37.1018C414.416 -38.9737 419.425 -40.9093 422.902 -37.5544L422.921 -37.5426Z" fill="white"/>
<path d="M344.716 766.418C347.163 769.738 346.445 774.343 343.101 776.709C339.756 779.074 335.062 778.305 332.615 774.985C330.167 771.665 330.885 767.059 334.23 764.694C337.574 762.329 342.268 763.098 344.716 766.418Z" fill="white"/>
<path d="M322.825 728.152C327.211 734.089 325.915 742.333 319.947 746.56C313.966 750.793 305.575 749.405 301.189 743.467C296.791 737.536 298.087 729.292 304.067 725.059C310.035 720.832 318.44 722.214 322.825 728.152Z" fill="white"/>
<path d="M1119.26 24.008C1118.4 25.368 1116.59 25.758 1115.21 24.868C1113.83 23.978 1113.41 22.158 1114.26 20.798C1115.11 19.438 1116.93 19.048 1118.31 19.938C1119.69 20.828 1120.11 22.648 1119.26 24.008Z" fill="white"/>
<path d="M1133.47 33.1481C1132.61 34.5081 1130.8 34.8981 1129.42 34.0081C1128.04 33.1181 1127.62 31.2981 1128.47 29.9381C1129.33 28.5781 1131.14 28.1881 1132.52 29.0781C1133.9 29.9681 1134.32 31.7881 1133.47 33.1481Z" fill="white"/>
<path d="M1147.69 42.2878C1146.83 43.6478 1145.02 44.0378 1143.64 43.1478C1142.26 42.2578 1141.84 40.4378 1142.69 39.0778C1143.55 37.7178 1145.36 37.3278 1146.74 38.2178C1148.12 39.1078 1148.54 40.9278 1147.69 42.2878Z" fill="white"/>
<path d="M1161.9 51.4279C1161.04 52.7879 1159.23 53.1779 1157.85 52.2879C1156.47 51.3979 1156.05 49.5779 1156.9 48.2179C1157.75 46.8579 1159.57 46.4679 1160.95 47.3579C1162.33 48.2479 1162.75 50.0679 1161.9 51.4279Z" fill="white"/>
<path d="M1087.87 3.82783C1087.01 5.18783 1085.2 5.57783 1083.82 4.68783C1082.44 3.79783 1082.02 1.97783 1082.87 0.617832C1083.72 -0.742168 1085.54 -1.13217 1086.92 -0.242168C1088.3 0.647832 1088.72 2.46783 1087.87 3.82783Z" fill="white"/>
<path d="M1102.08 12.968C1101.22 14.328 1099.41 14.718 1098.03 13.828C1096.65 12.938 1096.23 11.118 1097.08 9.75797C1097.94 8.39797 1099.75 8.00797 1101.13 8.89797C1102.51 9.78797 1102.93 11.608 1102.08 12.968Z" fill="white"/>
<path d="M818.95 658.746C821.3 660.436 820.68 663.486 820.08 666.446C819.55 669.066 819.04 671.536 820.63 672.676C822.21 673.806 824.47 672.596 826.86 671.306C829.56 669.856 832.34 668.346 834.7 670.036C837.05 671.726 836.43 674.776 835.83 677.736C835.3 680.356 834.79 682.826 836.38 683.966C837.96 685.096 840.22 683.886 842.61 682.596C845.31 681.146 848.09 679.636 850.45 681.326C852.8 683.016 852.18 686.066 851.58 689.026C851.05 691.646 850.54 694.116 852.12 695.246C853.7 696.376 855.96 695.166 858.35 693.876C861.05 692.426 863.83 690.916 866.19 692.606C868.54 694.296 867.92 697.346 867.32 700.306C866.79 702.926 866.28 705.396 867.86 706.536C869.44 707.666 871.7 706.456 874.09 705.166C876.79 703.716 879.57 702.206 881.93 703.896C884.28 705.586 883.66 708.636 883.06 711.596C882.53 714.216 882.02 716.686 883.6 717.826L882.71 719.006C880.36 717.316 880.98 714.266 881.58 711.306C882.11 708.686 882.62 706.216 881.04 705.076C879.46 703.946 877.2 705.156 874.81 706.446C872.11 707.896 869.33 709.406 866.98 707.716C864.63 706.026 865.25 702.976 865.85 700.016C866.38 697.396 866.89 694.926 865.31 693.786C863.73 692.656 861.47 693.866 859.08 695.156C856.38 696.606 853.6 698.116 851.24 696.426C848.89 694.736 849.51 691.686 850.11 688.726C850.64 686.106 851.15 683.636 849.57 682.506C847.99 681.376 845.73 682.586 843.34 683.876C840.64 685.326 837.86 686.836 835.5 685.146C833.15 683.456 833.77 680.406 834.37 677.446C834.9 674.826 835.41 672.356 833.82 671.216C832.24 670.086 829.98 671.296 827.59 672.586C824.89 674.036 822.11 675.546 819.75 673.856C817.4 672.166 818.02 669.116 818.62 666.156C819.15 663.536 819.66 661.066 818.07 659.926C816.49 658.796 814.23 660.006 811.84 661.296C809.14 662.746 806.36 664.256 804 662.566L804.88 661.386C806.46 662.516 808.72 661.306 811.11 660.016C813.81 658.566 816.59 657.056 818.95 658.746Z" fill="white"/>
<path d="M-5.05 220.746C-2.7 222.436 -3.32 225.486 -3.92 228.446C-4.45 231.066 -4.96 233.536 -3.37 234.676C-1.79 235.806 0.470001 234.596 2.86 233.306C5.56 231.856 8.34 230.346 10.7 232.036C13.05 233.726 12.43 236.776 11.83 239.736C11.3 242.356 10.79 244.826 12.38 245.966C13.96 247.096 16.22 245.886 18.61 244.596C21.31 243.146 24.09 241.636 26.45 243.326C28.8 245.016 28.18 248.066 27.58 251.026C27.05 253.646 26.54 256.116 28.12 257.246C29.7 258.376 31.96 257.166 34.35 255.876C37.05 254.426 39.83 252.916 42.19 254.606C44.54 256.296 43.92 259.346 43.32 262.306C42.79 264.926 42.28 267.396 43.86 268.536C45.44 269.666 47.7 268.456 50.09 267.166C52.79 265.716 55.57 264.206 57.93 265.896C60.28 267.586 59.66 270.636 59.06 273.596C58.53 276.216 58.02 278.686 59.6 279.826L58.71 281.006C56.36 279.316 56.98 276.266 57.58 273.306C58.11 270.686 58.62 268.216 57.04 267.076C55.46 265.946 53.2 267.156 50.81 268.446C48.11 269.896 45.33 271.406 42.98 269.716C40.63 268.026 41.25 264.976 41.85 262.016C42.38 259.396 42.89 256.926 41.31 255.786C39.73 254.656 37.47 255.866 35.08 257.156C32.38 258.606 29.6 260.116 27.24 258.426C24.89 256.736 25.51 253.686 26.11 250.726C26.64 248.106 27.15 245.636 25.57 244.506C23.99 243.376 21.73 244.586 19.34 245.876C16.64 247.326 13.86 248.836 11.5 247.146C9.15 245.456 9.77 242.406 10.37 239.446C10.9 236.826 11.41 234.356 9.82 233.216C8.24 232.086 5.98 233.296 3.59 234.586C0.889999 236.036 -1.89 237.546 -4.25 235.856C-6.6 234.166 -5.98 231.116 -5.38 228.156C-4.85 225.536 -4.34 223.066 -5.93 221.926C-7.51 220.796 -9.77 222.006 -12.16 223.296C-14.86 224.746 -17.64 226.256 -20 224.566L-19.12 223.386C-17.54 224.516 -15.28 223.306 -12.89 222.016C-10.19 220.566 -7.41 219.056 -5.05 220.746Z" fill="white"/>
</svg>
